<?xml version="1.0" encoding="UTF-8"?>
<svg version="1.1" xmlns="http://www.w3.org/2000/svg" width="756" height="755">
<path d="M0 0 C4.64534231 4.44337091 6.10750784 8.0656337 6.3125 14.3125 C6.08833982 33.3380953 -4.23223824 53.27336668 -17.3125 66.75 C-24.05163043 73 -24.05163043 73 -29 73 C-29.58780209 109.11705096 -29.58780209 109.11705096 -26 145 C-25.72663818 146.71195557 -25.72663818 146.71195557 -25.44775391 148.45849609 C-23.23069935 162.05531938 -20.57582173 175.54966661 -17.52392578 188.98339844 C-17.32395996 189.86672852 -17.12399414 190.75005859 -16.91796875 191.66015625 C-16.74031982 192.42980713 -16.5626709 193.19945801 -16.37963867 193.99243164 C-16 196 -16 196 -16 199 C-14.85144531 198.79503906 -13.70289063 198.59007812 -12.51953125 198.37890625 C8.93662408 194.62268702 29.42207497 194.14334799 51 197 C51.24105469 196.18660156 51.48210938 195.37320313 51.73046875 194.53515625 C53.25516774 190.28945598 55.20451314 186.41906889 57.3125 182.4375 C57.74836426 181.6139502 58.18422852 180.79040039 58.63330078 179.94189453 C72.30952813 154.49117794 89.09029432 129.50485907 108.83984375 108.3359375 C110.05224398 107.02487902 111.25273981 105.70165037 112.40698242 104.33911133 C115.90894528 100.21690554 119.59168822 96.39775835 123.49609375 92.65234375 C124.47592232 91.70769355 125.4557399 90.76303197 126.43554688 89.81835938 C127.94392345 88.36576632 129.45667833 86.9195379 130.98510742 85.48803711 C132.48439071 84.07976387 133.9600865 82.65000291 135.43359375 81.21484375 C136.31072021 80.38073975 137.18784668 79.54663574 138.09155273 78.68725586 C140.53217243 75.25065601 140.3048455 73.12962826 140 69 C141.84314048 61.51295729 145.94838976 55.68549955 151 50 C151.70898438 49.19691406 152.41796875 48.39382812 153.1484375 47.56640625 C164.52612998 35.45162073 180.03376462 25.0290663 196.9375 23.6875 C201.29473917 23.77827582 203.82219364 24.89970111 207 28 C208.73117961 33.67442207 208.06239627 37.3433176 205.4140625 42.5859375 C195.28909079 59.8711102 179.35365166 72.51655298 160.5 79.25 C157 80 157 80 154.69921875 79.94921875 C150.42823323 79.92929191 147.9031012 80.26498388 144.5234375 83.015625 C141.86442818 85.90254941 139.41070144 88.90733587 137 92 C136.12954064 93.07188798 135.25712461 94.14218979 134.3828125 95.2109375 C108.25681791 127.47749432 87.57300751 163.52969378 72 202 C73.0003125 202.11601562 74.000625 202.23203125 75.03125 202.3515625 C104.14071092 206.5663091 136.92793603 227.81282136 157 249 C157 249.66 157 250.32 157 251 C157.66 251 158.32 251 159 251 C159.70125 251.99 160.4025 252.98 161.125 254 C164.37493421 257.97479699 168.0665689 259.70508996 172.625 261.8125 C190.12584266 270.0266894 203.09325767 284.79350088 209.72021484 302.97607422 C211.00572409 306.93733983 212.04264308 310.94881166 213 315 C213.1743457 315.62841797 213.34869141 316.25683594 213.52832031 316.90429688 C216.33746003 329.38548494 214.73279439 345.53441121 209 357 C208.9385526 358.73721875 208.94005688 360.47684431 208.97265625 362.21484375 C208.99368408 363.81791382 208.99368408 363.81791382 209.01513672 365.45336914 C209.0307666 366.60313232 209.04639648 367.75289551 209.0625 368.9375 C209.2948751 420.56350053 189.57006724 465.44153247 153.875 502.375 C140.62654567 515.18183919 125.28867223 525.50897276 109 534 C108.33661621 534.34804688 107.67323242 534.69609375 106.98974609 535.0546875 C62.96746095 557.82003933 9.84538946 560.99159696 -37.23828125 546.43359375 C-59.94588658 539.00408833 -80.2434548 527.70683658 -99 513 C-99.54914063 513.69222656 -100.09828125 514.38445313 -100.6640625 515.09765625 C-111.39054513 528.42504186 -122.7507752 542.31052714 -137 552 C-135.60186349 555.22701204 -133.98288368 557.10495065 -131.375 559.4375 C-123.47779861 567.14804027 -115.04912561 579.54860863 -114.625 591 C-115 594 -115 594 -117 596 C-119.4375 596.4375 -119.4375 596.4375 -122 596 C-124.47923187 592.51000436 -125.81610227 588.90502798 -127.1875 584.875 C-130.51229103 576.04882801 -136.78977144 565.23890775 -145 560 C-149.06530446 560.17013389 -152.50580414 562.9695869 -155.875 565.0625 C-157.20624573 565.87628641 -158.53829831 566.68875417 -159.87109375 567.5 C-160.88985596 568.12068359 -160.88985596 568.12068359 -161.92919922 568.75390625 C-165.23506294 570.74319279 -168.58303331 572.6566518 -171.9375 574.5625 C-172.5464209 574.90869385 -173.1553418 575.2548877 -173.78271484 575.61157227 C-175.18769764 576.40908863 -176.59372172 577.20477022 -178 578 C-177.278125 579.010625 -176.55625 580.02125 -175.8125 581.0625 C-169.53449374 591.06080626 -166.87017196 603.07719624 -166.8125 614.75 C-166.79832031 616.06484375 -166.78414063 617.3796875 -166.76953125 618.734375 C-167 622 -167 622 -169 624 C-171.4375 624.375 -171.4375 624.375 -174 624 C-177.42554662 620.66459934 -177.35490333 617.69277221 -177.4375 613.0625 C-177.90297824 601.57275863 -181.78341225 592.12816328 -187 582 C-187.75804932 582.27150879 -188.51609863 582.54301758 -189.29711914 582.82275391 C-220.22514636 593.84332667 -251.20665228 601.73584733 -284 605 C-285.051875 605.11085938 -286.10375 605.22171875 -287.1875 605.3359375 C-299.09070258 606.39463581 -311.06190561 606.09139884 -323 606 C-322.98187256 606.7741626 -322.96374512 607.5483252 -322.94506836 608.34594727 C-322.7488415 622.84991569 -326.33538594 634.74868777 -334 647 C-335 648 -335 648 -337.4375 648.1875 C-340 648 -340 648 -342 646 C-341.90166256 641.37814036 -340.67816933 638.18124452 -338.625 634.0625 C-334.27872601 624.98054597 -333.38182924 614.8775201 -332 605 C-332.64582031 605.03480469 -333.29164063 605.06960938 -333.95703125 605.10546875 C-343.13368335 605.3690935 -351.8314196 603.92315375 -360.83447266 602.36376953 C-363.88251369 601.85175362 -366.93817232 601.42105241 -370 601 C-370.268125 601.79921875 -370.53625 602.5984375 -370.8125 603.421875 C-374.85574426 614.75359903 -381.90253728 629.91429464 -393 636 C-395.625 636.3125 -395.625 636.3125 -398 636 C-400 634 -400 634 -400.375 631.625 C-399.87795375 628.14567622 -398.63329409 627.27744354 -396 625 C-387.84308484 617.27983305 -382.62274126 607.55838406 -379 597 C-379.79019531 596.92007813 -380.58039063 596.84015625 -381.39453125 596.7578125 C-386.15102141 595.75807351 -390.28121039 593.89162646 -394.6875 591.875 C-396.02433838 591.26603882 -396.02433838 591.26603882 -397.38818359 590.64477539 C-408.0255301 585.71009386 -417.00736498 579.49128287 -426 572 C-426.61488281 571.52046875 -427.22976563 571.0409375 -427.86328125 570.546875 C-434.37511245 565.33741004 -439.31232324 558.55335343 -444.31640625 551.9375 C-447.38188373 548.58198462 -450.34919375 546.63565256 -454.3125 544.5 C-455.01181641 544.11763184 -455.71113281 543.73526367 -456.43164062 543.34130859 C-476.07622545 532.88149049 -494.9412001 529.87750379 -517 532 C-516.63089861 529.38221938 -516.24268397 528.22720526 -514.28515625 526.39453125 C-513.18494141 525.61142578 -513.18494141 525.61142578 -512.0625 524.8125 C-496.4340636 513.15279903 -484.21466336 498.88384309 -473.26977539 482.85205078 C-472.27687707 481.40384338 -471.23684807 479.98792298 -470.1796875 478.5859375 C-468.34299897 474.55981893 -468.41447992 470.50214065 -468.1875 466.125 C-465.81130972 434.02901838 -452.29702192 406.82864797 -430 384 C-429.11183594 383.03835938 -428.22367187 382.07671875 -427.30859375 381.0859375 C-417.2559498 370.37114335 -405.04095301 360.81268736 -392 354 C-391.34 354 -390.68 354 -390 354 C-390 353.34 -390 352.68 -390 352 C-390.59699707 351.72446289 -391.19399414 351.44892578 -391.80908203 351.16503906 C-393.89579326 350.05541281 -395.33972011 348.96663912 -397.0546875 347.359375 C-397.65474609 346.79822998 -398.25480469 346.23708496 -398.87304688 345.65893555 C-399.86401367 344.71401245 -399.86401367 344.71401245 -400.875 343.75 C-401.58462891 343.07686768 -402.29425781 342.40373535 -403.02539062 341.71020508 C-410.2664222 334.78727232 -417.39060681 327.74357845 -424.49468994 320.68054199 C-425.81752848 319.36579631 -427.14183887 318.05252966 -428.4677124 316.74084473 C-436.13155715 309.15027919 -443.35801731 301.51416626 -450 293 C-450.99894131 291.77151407 -451.99994626 290.54470041 -453.00390625 289.3203125 C-471.58860606 266.25716017 -487.50253505 236.94472151 -484.5390625 206.4140625 C-482.30161726 192.24357599 -476.38476109 180.69016019 -467 170 C-466.41734375 169.32195312 -465.8346875 168.64390625 -465.234375 167.9453125 C-450.39066669 151.8753848 -425.45062906 139.70166172 -403.6015625 138.76171875 C-378.6406421 138.19921914 -358.69595104 146.43817218 -340.42578125 163.46728516 C-337.53914769 166.23797103 -334.74239661 169.08699347 -332 172 C-330.54505445 169.24317885 -329.46700574 166.55663167 -328.5546875 163.578125 C-319.75144008 135.56707044 -305.1961538 107.18319066 -278.23657227 92.73364258 C-254.25766055 80.49134105 -226.69635698 79.9566517 -201 87 C-199.98873047 87.27287842 -199.98873047 87.27287842 -198.95703125 87.55126953 C-183.96200779 91.73775438 -170.46099823 98.42206229 -159 109 C-158.29617188 109.61230469 -157.59234375 110.22460938 -156.8671875 110.85546875 C-141.32336477 125.14969005 -134.09061745 146.53844325 -132.87182617 167.16967773 C-130.9013138 223.09500114 -160.33949128 278.05848961 -188 325 C-187.44127197 325.22139648 -186.88254395 325.44279297 -186.30688477 325.67089844 C-183.72466449 326.69536481 -181.14358134 327.7226677 -178.5625 328.75 C-177.68400391 329.09804688 -176.80550781 329.44609375 -175.90039062 329.8046875 C-170.20550953 332.07423421 -164.58166617 334.46466272 -159 337 C-158.88527344 335.84886719 -158.77054687 334.69773437 -158.65234375 333.51171875 C-156.07688052 313.17136182 -144.64268901 292.5144525 -133 276 C-132.29359375 274.989375 -131.5871875 273.97875 -130.859375 272.9375 C-125.55561458 265.61144245 -119.64341533 258.98070545 -113.39746094 252.46044922 C-112.16418909 251.17158965 -110.94431172 249.86994193 -109.7265625 248.56640625 C-91.66556463 229.73328394 -68.91787239 217.31301414 -45.03027344 207.52490234 C-44.25844727 207.20859863 -43.48662109 206.89229492 -42.69140625 206.56640625 C-42.00248291 206.28740479 -41.31355957 206.00840332 -40.60375977 205.72094727 C-38.99224476 205.11058319 -38.99224476 205.11058319 -38 204 C-38.18690885 201.5724877 -38.43927524 199.18729617 -38.7421875 196.7734375 C-38.83001495 196.03356598 -38.91784241 195.29369446 -39.0083313 194.53140259 C-39.2920339 192.14527951 -39.58287747 189.76010586 -39.875 187.375 C-42.05515246 169.47911601 -43.23252668 151.78307992 -43.25 133.75 C-43.25167175 132.83223785 -43.25334351 131.91447571 -43.25506592 130.96890259 C-43.25686885 114.37089455 -42.4874946 97.94501112 -39.34667969 81.60009766 C-37.80247868 73.45803155 -37.80247868 73.45803155 -41 66 C-43.36958688 49.29441248 -36.44546771 31.76453163 -27.0546875 18.1875 C-11.45743177 -1.87485247 -11.45743177 -1.87485247 0 0 Z " fill="#030202" transform="translate(529,29)"/>
<path d="M0 0 C0.64888184 0.18433594 1.29776367 0.36867187 1.96630859 0.55859375 C28.50652729 8.13964612 51.70147382 20.49516002 72.75 38.375 C73.59026733 39.0880127 73.59026733 39.0880127 74.44750977 39.81542969 C78.03156588 42.94265679 81.03640004 46.27903561 84 50 C83.31599121 49.97905273 82.63198242 49.95810547 81.92724609 49.93652344 C57.79342283 49.2953356 40.19695364 52.66955005 22.1015625 69.796875 C10.1655494 82.43500652 3.81891092 99.80287073 3 117 C1.12535798 114.18803697 -0.19878879 111.38250762 -1.56176758 108.30126953 C-12.60057539 83.6060103 -31.84213386 67.39168354 -56.80224609 57.78222656 C-78.46835566 50.07080521 -104.39758523 52.40797725 -125 62 C-145.88598481 72.50192894 -161.38838347 89.20351326 -169.21875 111.46484375 C-176.7284866 135.30825747 -173.61044227 159.55554934 -162.1875 181.6875 C-151.04667915 201.24771981 -133.10770126 215.57751165 -112 223 C-110.82695312 223.4125 -109.65390625 223.825 -108.4453125 224.25 C-90.96635331 229.48278612 -71.25568325 228.7824896 -54 223 C-53.34322266 222.78037598 -52.68644531 222.56075195 -52.00976562 222.33447266 C-30.80862277 214.99920947 -13.97679784 200.80567817 -3.625 180.8125 C-1.34401165 175.96775616 0.55801206 171.154891 2 166 C2.26683594 165.07574219 2.53367187 164.15148437 2.80859375 163.19921875 C4.72074895 156.14528738 5.62502843 149.29255055 6 142 C9.01741382 143.50870691 9.06585317 145.727186 10.125 148.875 C12.72616808 155.87283272 16.33251436 161.22607853 21 167 C21.72316406 167.96873047 21.72316406 167.96873047 22.4609375 168.95703125 C31.92304667 181.07181264 48.87639229 190.04742154 64 192 C83.35579378 193.33582239 100.89228497 190.08443013 116.26953125 177.55859375 C121.93555838 172.4553323 126.68098259 167.28220715 131 161 C131.33 161 131.66 161 132 161 C132.34562558 179.39496138 131.32208805 196.31246573 126 214 C125.72542969 215.02867187 125.45085937 216.05734375 125.16796875 217.1171875 C117.84142415 243.41245715 102.82808833 267.43475977 84 287 C83.52481934 287.50096191 83.04963867 288.00192383 82.56005859 288.51806641 C61.91422485 310.20563253 36.44684809 325.74320337 8 335 C7.16597656 335.27328125 6.33195313 335.5465625 5.47265625 335.828125 C2.99358162 336.60360925 0.5045468 337.31107022 -2 338 C-3.16789063 338.33 -4.33578125 338.66 -5.5390625 339 C-50.67320988 351.34238997 -101.89089513 343.94804343 -142.40966797 320.9909668 C-154.39070132 313.96773974 -165.46318456 305.99534282 -175.484375 296.375 C-177.95761101 293.97427969 -177.95761101 293.97427969 -180.6328125 291.8984375 C-184.25454076 288.99388315 -187.04609763 285.56697644 -190 282 C-191.24136719 280.515 -191.24136719 280.515 -192.5078125 279 C-223.89709186 240.71859093 -234.99931962 194.72905914 -230.52734375 145.953125 C-226.56574812 112.35777252 -209.88234155 79.95743205 -187.11328125 55.30078125 C-185.20404395 53.22214766 -183.38023356 51.09579254 -181.5625 48.9375 C-138.81953894 0.25531201 -60.99074479 -17.88856231 0 0 Z " fill="#F1CB5A" transform="translate(601,235)"/>
<path d="M0 0 C1.22460938 0.01087646 2.44921875 0.02175293 3.7109375 0.03295898 C28.81560345 0.47110022 52.7118165 7.1766993 72.3125 23.375 C73.55966797 24.33599609 73.55966797 24.33599609 74.83203125 25.31640625 C88.34773342 36.53337483 96.16327197 55.30169321 98.3125 72.375 C99.42448153 94.43836743 97.05821711 115.3619118 90.3125 136.375 C89.93351562 137.56343506 89.93351562 137.56343506 89.546875 138.77587891 C85.35324843 151.73449335 80.13239994 164.07238395 74.3125 176.375 C73.55622314 177.98592529 73.55622314 177.98592529 72.78466797 179.62939453 C61.74518305 203.0854105 50.339652 226.33276187 35.9375 247.9375 C35.21272461 249.02498535 34.48794922 250.1124707 33.74121094 251.23291016 C18.77358366 273.24030919 1.377086 293.51617982 -24.61328125 302.00390625 C-27.56918875 302.53274092 -30.43814692 302.46749353 -33.4375 302.4375 C-34.60796875 302.42847656 -35.7784375 302.41945313 -36.984375 302.41015625 C-37.87640625 302.39855469 -38.7684375 302.38695312 -39.6875 302.375 C-38.04771204 292.42423707 -34.87654306 282.99951734 -31.75 273.4375 C-31.46093781 272.55028259 -31.17187561 271.66306519 -30.87405396 270.7489624 C-25.82702829 255.31302291 -20.24025147 240.24452764 -13.6875 225.375 C-12.97062012 223.73337891 -12.97062012 223.73337891 -12.23925781 222.05859375 C-5.09663023 205.80523158 2.60833065 189.66981703 12.609375 174.9453125 C14.13636646 172.64081622 14.89705282 171.07540667 15.3125 168.375 C3.00551573 172.77816548 -6.21038273 201.19670156 -11.6875 212.375 C-14.93892735 219.27307537 -17.86792464 226.29103582 -20.6875 233.375 C-21.09452148 234.3944873 -21.50154297 235.41397461 -21.92089844 236.46435547 C-30.37974175 257.77795121 -37.59280974 279.27371066 -43.6875 301.375 C-45.0075 301.375 -46.3275 301.375 -47.6875 301.375 C-48.1089285 266.24385367 -47.63635379 232.26627263 -41.00708008 197.63793945 C-40.66144874 195.19053161 -40.63381954 192.84348372 -40.6875 190.375 C-41.6775 190.705 -42.6675 191.035 -43.6875 191.375 C-45.11129503 200.02871523 -46.423452 208.69660046 -47.6875 217.375 C-47.84186523 218.40109375 -47.99623047 219.4271875 -48.15527344 220.484375 C-51.95881014 246.5657695 -51.43638695 273.07732075 -51.6875 299.375 C-61.82750595 297.56121981 -69.77892279 290.54772462 -75.6875 282.375 C-81.22782345 273.82677706 -85.4788941 265.06629946 -88.6875 255.375 C-89.10773438 254.1684375 -89.52796875 252.961875 -89.9609375 251.71875 C-98.30606028 226.19841982 -98.0504193 199.09527633 -98 172.5625 C-97.99894382 171.88884903 -97.99788765 171.21519806 -97.99679947 170.52113342 C-97.89777174 120.11687564 -97.89777174 120.11687564 -93.19848633 99.63598633 C-92.71946795 97.51645014 -92.28370833 95.39353735 -91.86328125 93.26171875 C-85.70190669 62.78350077 -72.53127811 32.68239033 -46.9375 13.625 C-32.36895992 4.02038404 -17.42323943 -0.21244892 0 0 Z " fill="#CBE8E8" transform="translate(292.6875,116.625)"/>
<path d="M0 0 C3.45753343 2.87797553 6.75224892 5.88855964 10 9 C10.86625 9.804375 11.7325 10.60875 12.625 11.4375 C28.99040473 29.09491037 36.7628758 49.8459745 36.08886719 73.97216797 C35.13545991 95.7276647 25.15126677 114.02777331 10 129 C9.01580078 129.99966797 9.01580078 129.99966797 8.01171875 131.01953125 C2.15976902 136.57073838 -4.92894064 140.24683609 -12 144 C-12.74894531 144.41378906 -13.49789062 144.82757813 -14.26953125 145.25390625 C-32.65079348 154.4989198 -56.62891507 154.54740941 -75.88525391 148.39794922 C-98.62393704 140.65995738 -117.65080383 125.40976076 -128.875 104.125 C-129.95402777 101.7667393 -130.99606378 99.39119353 -132 97 C-132.50660156 95.84886719 -133.01320313 94.69773437 -133.53515625 93.51171875 C-136.84157353 84.78977678 -137.45480805 76.62267754 -137.5 67.3125 C-137.50954712 65.63861206 -137.50954712 65.63861206 -137.51928711 63.9309082 C-137.18298452 41.85353664 -128.5423471 22.56914425 -113 7 C-112.31421875 6.30261719 -111.6284375 5.60523438 -110.921875 4.88671875 C-81.22116668 -23.43895678 -32.30722057 -23.91510472 0 0 Z " fill="#FDFDFD" transform="translate(568,308)"/>
<path d="M0 0 C1.05316406 0.00902344 2.10632813 0.01804688 3.19140625 0.02734375 C22.21032682 0.44894544 39.32923087 8.57733336 53.1875 21.4375 C53.7949707 21.97213867 54.40244141 22.50677734 55.02832031 23.05761719 C57.0269494 24.82157744 58.9846278 26.62310863 60.9375 28.4375 C61.57123535 28.99453613 62.2049707 29.55157227 62.85791016 30.12548828 C67.05857795 34.17157337 67.05857795 34.17157337 67.40234375 37.54711914 C67.15976876 39.9027176 66.71551527 42.1297174 66.1875 44.4375 C65.93858682 45.97638448 65.69905984 47.51681536 65.46875 49.05859375 C65.08574692 51.43592096 64.69827216 53.81191356 64.29296875 56.18554688 C61.44957678 74.09317204 61.97055564 92.43147409 61.94726562 110.51049805 C61.94289926 113.40418225 61.92904908 116.29756523 61.90625 119.19116211 C61.76742466 137.18100648 62.45471534 154.66728318 64.82775879 172.53933716 C65.40145156 177.16114589 65.80248263 181.79666815 66.1875 186.4375 C62.91732905 185.71665939 61.44043391 185.03297483 59.19140625 182.515625 C58.6394458 181.9086377 58.08748535 181.30165039 57.51879883 180.67626953 C56.93509521 180.01997559 56.3513916 179.36368164 55.75 178.6875 C54.49655342 177.31349492 53.24130678 175.94113006 51.984375 174.5703125 C51.35080078 173.87711914 50.71722656 173.18392578 50.06445312 172.46972656 C42.00020709 163.73835508 33.56109917 155.75311346 24.1875 148.4375 C23.300625 147.69628906 22.41375 146.95507812 21.5 146.19140625 C19.40564487 144.2360673 19.40564487 144.2360673 17.1875 144.4375 C17.54441811 147.15007763 17.9936635 148.25526055 20.015625 150.15625 C20.81484375 150.7440625 21.6140625 151.331875 22.4375 151.9375 C35.79709772 162.21411363 49.57274608 174.54952211 59.1875 188.4375 C58.52105469 188.67549316 57.85460937 188.91348633 57.16796875 189.15869141 C50.45096883 191.57657652 43.7996097 194.12133518 37.1875 196.8125 C36.22924316 197.20026611 35.27098633 197.58803223 34.28369141 197.98754883 C28.2759788 200.45881737 22.68364279 203.11855107 17.2109375 206.63671875 C15.1875 207.4375 15.1875 207.4375 13.26904297 206.671875 C11.18841118 205.43804034 9.6064765 204.15543152 7.859375 202.48828125 C7.23256836 201.89515137 6.60576172 201.30202148 5.95996094 200.69091797 C5.29254883 200.05041504 4.62513672 199.40991211 3.9375 198.75 C2.50028247 197.38381736 1.0627742 196.01794053 -0.375 194.65234375 C-1.10976562 193.95222168 -1.84453125 193.25209961 -2.6015625 192.53076172 C-4.71935254 190.52568975 -6.85481474 188.54210163 -9 186.56640625 C-16.39791081 179.7411001 -23.46672803 172.76902157 -30.20703125 165.29296875 C-32.40766981 162.88117447 -34.65607644 160.58274423 -37 158.3125 C-41.68058732 153.68006687 -45.76688812 148.62686322 -49.8125 143.4375 C-50.46871338 142.59590332 -50.46871338 142.59590332 -51.13818359 141.73730469 C-61.49939786 128.33734113 -69.65215563 114.23580249 -75.8125 98.4375 C-76.12960938 97.62925781 -76.44671875 96.82101562 -76.7734375 95.98828125 C-82.83524191 79.27330572 -82.44651511 61.87942673 -75.59765625 45.5390625 C-66.61027685 27.35590069 -48.76583252 14.66173482 -30.6875 6.625 C-30.06746094 6.34720703 -29.44742188 6.06941406 -28.80859375 5.78320312 C-19.33742232 1.73678789 -10.29674433 -0.1064263 0 0 Z " fill="#CBE8E8" transform="translate(129.8125,172.5625)"/>
<path d="M0 0 C13.1589846 9.86923845 21.80972505 23.39370802 26.65625 38.9921875 C26.90117188 39.77335937 27.14609375 40.55453125 27.3984375 41.359375 C30.48363264 53.57336671 29.81466487 68.18496134 25.65625 79.9921875 C25.30433594 80.99636719 24.95242188 82.00054687 24.58984375 83.03515625 C21.87072061 90.11564522 18.26864186 95.99715826 13.65625 101.9921875 C12.934375 103.0028125 12.2125 104.0134375 11.46875 105.0546875 C0.22089208 117.94590128 -15.79874053 123.89068737 -32.41796875 125.2421875 C-50.38067254 125.94920659 -66.29514083 119.04970965 -79.78125 107.42578125 C-92.83481388 95.0288753 -102.614961 77.2702157 -103.34375 58.9921875 C-103.40691406 57.96738281 -103.47007812 56.94257813 -103.53515625 55.88671875 C-104.16947446 37.77795696 -98.12672486 20.93554951 -85.96875 7.4921875 C-62.35950425 -17.33801563 -27.90470257 -18.68332097 0 0 Z " fill="#FCFCFC" transform="translate(710.34375,300.0078125)"/>
<path d="M0 0 C0.66 0 1.32 0 2 0 C2.61875 1.83111328 2.61875 1.83111328 3.25 3.69921875 C9.69369055 22.26809279 18.0499339 38.36338593 36 48 C38.31601029 49.04986111 40.64886911 50.02932297 43 51 C43.02505615 51.70608398 43.0501123 52.41216797 43.07592773 53.13964844 C43.19207369 56.34327509 43.31471603 59.54662118 43.4375 62.75 C43.47681641 63.86117187 43.51613281 64.97234375 43.55664062 66.1171875 C43.61948242 67.72207031 43.61948242 67.72207031 43.68359375 69.359375 C43.73858032 70.83615723 43.73858032 70.83615723 43.79467773 72.34277344 C43.97664644 74.69776437 44.38136902 76.73148144 45 79 C45.12786653 80.79013136 45.22839114 82.58227977 45.3125 84.375 C47.03679106 107.51138308 52.8244119 131.71667995 62 153 C62.63060363 154.55399979 63.25934038 156.10875781 63.88671875 157.6640625 C71.59714991 176.51079543 81.11040134 194.448334 93 211 C93.474375 211.66225586 93.94875 212.32451172 94.4375 213.00683594 C101.5537015 222.87037304 108.99329323 232.22918073 117.78515625 240.67578125 C120 243 120 243 120 245 C106.13360388 249.5585333 92.54723998 253.44454155 78 255 C77.13117188 255.14179687 76.26234375 255.28359375 75.3671875 255.4296875 C71.50487708 254.72860805 69.3372986 251.93899845 66.75 249.1875 C65.88858398 248.29562988 65.88858398 248.29562988 65.00976562 247.38574219 C60.02574377 242.16451885 55.42371966 236.70330799 51 231 C49.99375922 229.73416061 48.98722891 228.46855135 47.98046875 227.203125 C31.23767415 205.95903837 17.36794432 182.42408726 8 157 C7.70641602 156.2069043 7.41283203 155.41380859 7.11035156 154.59667969 C-3.28698079 126.06782006 -7.2371548 97.04686192 -7.375 66.8125 C-7.37989441 65.8268808 -7.38478882 64.8412616 -7.38983154 63.82577515 C-7.4273212 45.46939374 -5.56980917 27.98930799 -2 10 C-1.79858398 8.97567871 -1.59716797 7.95135742 -1.38964844 6.89599609 C-0.93324419 4.59586359 -0.47083078 2.29721467 0 0 Z " fill="#F0CC57" transform="translate(198,370)"/>
<path d="M0 0 C0.11412187 4.17495828 0.07173819 8.07952508 -0.65625 12.1953125 C-3.10368669 26.15702432 -3.33749662 39.98707848 -3.375 54.125 C-3.38623901 55.58078461 -3.38623901 55.58078461 -3.39770508 57.065979 C-3.48116081 70.26283398 -2.45374989 82.88971232 -0.31567383 95.90937805 C0.09358706 98.61980166 0.32266574 101.32795435 0.5 104.0625 C0.87398413 108.68695757 1.86966722 112.97151848 3.08203125 117.4453125 C3.75949867 120.06869698 4.3518393 122.65284194 4.88671875 125.3046875 C13.52280946 166.81704529 34.25816458 210.29635134 61.91015625 242.4453125 C64 245 64 245 64 247 C60.35394698 246.85936717 56.70821861 246.71153182 53.0625 246.5625 C52.04091797 246.52318359 51.01933594 246.48386719 49.96679688 246.44335938 C41.40944659 246.08794227 33.03913963 245.43141257 24.66796875 243.5625 C21.96597179 242.95510112 21.96597179 242.95510112 19.05078125 242.625 C11.13281043 241.3273044 7.21778799 238.05441719 2.55859375 231.6875 C1.70150704 230.46127365 0.84885788 229.23193709 0 228 C-0.46905762 227.33484375 -0.93811523 226.6696875 -1.42138672 225.984375 C-17.07407845 203.68973989 -30.06253838 179.76250231 -39 154 C-39.64195313 152.22689453 -39.64195313 152.22689453 -40.296875 150.41796875 C-49.78043957 123.40151782 -54.32862712 94.47585763 -54.93612671 65.89831543 C-54.97820344 64.11255733 -55.03801186 62.32711556 -55.11685181 60.54260254 C-55.74414833 45.11216482 -55.74414833 45.11216482 -50.28399658 38.7131958 C-47.96850598 36.32547976 -45.52566126 34.16590137 -43 32 C-41.92534272 30.87968446 -40.86347603 29.74658202 -39.828125 28.58984375 C-12.03829161 0 -12.03829161 0 0 0 Z " fill="#F0CC57" transform="translate(145,384)"/>
<path d="M0 0 C1.17761955 3.53285866 0.74599911 5.17154572 0.08203125 8.8125 C-1.30157518 17.89511271 -1.33637262 26.90033139 -1.31567383 36.07373047 C-1.31253523 38.96751398 -1.33597971 41.8602498 -1.36132812 44.75390625 C-1.42731696 63.3001168 0.52704312 81.23409347 6 99 C6.36125977 100.19657227 6.72251953 101.39314453 7.09472656 102.62597656 C18.16898067 138.46681105 35.35518346 169.6912436 60 198 C61.23029747 199.43653231 62.45971246 200.87382189 63.6875 202.3125 C64.8321875 203.6428125 64.8321875 203.6428125 66 205 C61.83933287 215.53394336 46.1490245 223.1047178 37 229 C36.01 229.66 35.02 230.32 34 231 C29.80748679 230.84803257 27.19434039 227.79506521 24.3125 225.0625 C23.78213135 224.56596924 23.2517627 224.06943848 22.70532227 223.55786133 C-10.19327266 192.38528947 -32.55094315 149.70852717 -40.56054688 105.29248047 C-40.99943606 103.0029419 -41.51407007 100.74199236 -42.046875 98.47265625 C-45.07260247 84.91523801 -48.7433591 61.65231454 -42.91308594 48.55908203 C-40.18344088 45.07461242 -36.65785604 43.11678928 -32.79150391 41.07714844 C-29.64551119 39.18560853 -27.35605931 36.53907386 -24.9375 33.8125 C-24.45095947 33.2760083 -23.96441895 32.7395166 -23.46313477 32.18676758 C-14.62381618 22.26752563 -6.84505045 11.37628102 0 0 Z " fill="#F0CC57" transform="translate(335,361)"/>
<path d="M0 0 C2.25315483 1.68038315 4.31727534 3.45104349 6.3828125 5.35546875 C7.00671875 5.87753906 7.630625 6.39960938 8.2734375 6.9375 C15.75573329 13.62276863 20.79512054 24.2620311 21.75390625 34.203125 C22.15600833 47.96901632 19.00392583 59.09026415 9.3828125 69.35546875 C8.78726563 69.99226563 8.19171875 70.6290625 7.578125 71.28515625 C-2.66434975 81.18763184 -15.12537309 82.74841328 -28.6484375 82.5625 C-41.34730788 82.17804311 -52.03838412 75.94561229 -60.76171875 66.80859375 C-70.14903347 54.39757555 -71.89068945 41.49761088 -70.6171875 26.35546875 C-68.15518904 14.97022707 -59.99902426 6.18164315 -50.66015625 -0.3984375 C-35.35406799 -9.73427336 -15.18434387 -9.54120712 0 0 Z " fill="#010101" transform="translate(544.6171875,354.64453125)"/>
<path d="M0 0 C7.70486575 6.37213222 13.15841961 13.89546973 15.16796875 23.79296875 C16.12708049 35.33919853 13.51773845 44.78301578 6.16796875 53.79296875 C-0.72880731 61.21899381 -9.51985802 64.67031012 -19.51953125 65.04296875 C-30.48282536 64.86430766 -39.20385975 60.4964695 -46.875 52.72265625 C-53.97500904 44.27531074 -56.64579105 35.2635803 -56.2734375 24.28515625 C-55.04102208 14.53489618 -50.39870497 6.06958662 -42.83203125 -0.20703125 C-28.59426829 -8.97157624 -13.96125643 -10.00762629 0 0 Z " fill="#030303" transform="translate(695.83203125,342.20703125)"/>
<path d="M0 0 C1.75 0.0625 1.75 0.0625 4 1 C5.20426975 2.45921843 6.4071494 3.91963472 7.59912109 5.38891602 C17.371306 16.62743958 34.30487709 25.64526825 49.00756836 27.34838867 C72.58902254 28.76585313 92.98367081 23.32813861 111.5625 8.4375 C114.6365674 5.98485698 114.6365674 5.98485698 118 6.125 C118.66 6.41375 119.32 6.7025 120 7 C120.5 9.1328125 120.5 9.1328125 120 12 C117.61811374 14.3737514 114.83426343 16.08522575 112 17.875 C110.78280273 18.6628186 110.78280273 18.6628186 109.54101562 19.46655273 C89.65937518 32.01635476 67.81345368 37.85448062 44.3125 34.46875 C41.46814851 33.78729079 38.75666656 32.9739375 36 32 C34.78763672 31.61714844 34.78763672 31.61714844 33.55078125 31.2265625 C21.485019 26.99091649 11.0365832 18.85043635 2 10 C0.86884766 8.96359375 0.86884766 8.96359375 -0.28515625 7.90625 C-0.85105469 7.2771875 -1.41695312 6.648125 -2 6 C-1.7 1.7 -1.7 1.7 0 0 Z " fill="#090803" transform="translate(538,492)"/>
<path d="M0 0 C4.77856136 2.00681579 7.49891905 4.76581728 9.98046875 9.29296875 C11.86453455 13.93335304 11.13115661 17.41797092 9.63671875 22.05859375 C7.05204617 26.78230571 3.69635551 29.2547312 -1.17578125 31.37109375 C-5.75331065 32.08685289 -9.26563871 31.82616502 -13.42578125 29.74609375 C-18.06176386 25.74229059 -21.95263012 22.00427711 -22.48828125 15.68359375 C-22.38972568 10.24332603 -20.42361546 6.67716201 -16.66796875 2.82421875 C-11.47386237 -1.47601816 -6.37341 -1.84222443 0 0 Z " fill="#F8F8F8" transform="translate(500.17578125,373.62890625)"/>
<path d="M0 0 C4.57015831 1.82806332 6.87647372 4.58959926 9 9 C9.3409981 13.60347439 8.61060381 17.01040073 6.1875 20.9375 C2.90938851 24.02829084 1.13962713 24.87337476 -3.375 25.375 C-8.6151217 24.83291844 -11.48600311 22.7663297 -14.875 18.8125 C-16.47883295 14.80291763 -16.82221909 11.25311513 -16 7 C-12.11077371 0.07141539 -7.36861736 -0.69080788 0 0 Z " fill="#F8F8F8" transform="translate(660,356)"/>
<path d="M0 0 C0.33 0 0.66 0 1 0 C1.33 15.51 1.66 31.02 2 47 C2.33 47 2.66 47 3 47 C3 48.65 3 50.3 3 52 C1.68 52 0.36 52 -1 52 C-1.02529271 44.91586059 -1.04284261 37.83173277 -1.05493164 30.74755859 C-1.05996974 28.33609583 -1.06680034 25.92463614 -1.07543945 23.51318359 C-1.08752787 20.05305221 -1.09323344 16.5929611 -1.09765625 13.1328125 C-1.10281754 12.04944611 -1.10797882 10.96607971 -1.11329651 9.84988403 C-1.11337204 8.8489975 -1.11344757 7.84811096 -1.11352539 6.81689453 C-1.115746 5.93309113 -1.11796661 5.04928772 -1.12025452 4.13870239 C-1 2 -1 2 0 0 Z " fill="#C1D9D9" transform="translate(246,366)"/>
<path d="M0 0 C1.31236443 4.4143167 1.31236443 4.4143167 0 6.875 C-3.10259257 8.62020832 -5.6273707 7.69997967 -9 7 C-10.31236443 2.5856833 -10.31236443 2.5856833 -9 0.125 C-5.89740743 -1.62020832 -3.3726293 -0.69997967 0 0 Z " fill="#ECECEC" transform="translate(499,411)"/>
<path d="M0 0 C2 1.375 2 1.375 4 3 C4 3.66 4 4.32 4 5 C0.35394698 4.85936717 -3.29178139 4.71153182 -6.9375 4.5625 C-7.95908203 4.52318359 -8.98066406 4.48386719 -10.03320312 4.44335938 C-16.06590209 4.19279999 -22.007705 3.74356945 -28 3 C-28 2.67 -28 2.34 -28 2 C-22.61796179 1.10299363 -18.01551748 1.08740627 -12.609375 1.7421875 C-8.40803346 2.15729011 -4.21683642 2.08074793 0 2 C0 1.34 0 0.68 0 0 Z " fill="#D0B54D" transform="translate(205,626)"/>
<path d="M0 0 C2.5625 0.1875 2.5625 0.1875 4.5625 2.1875 C4.1875 4.3125 4.1875 4.3125 3.5625 6.1875 C0.6875 6.8125 0.6875 6.8125 -2.4375 7.1875 C-3.0975 6.5275 -3.7575 5.8675 -4.4375 5.1875 C-3.69457547 0.28419811 -3.69457547 0.28419811 0 0 Z " fill="#E5E5E5" transform="translate(656.4375,384.8125)"/>
<path d="M0 0 C-15.79552716 9.87220447 -15.79552716 9.87220447 -22.203125 8.54296875 C-22.79609375 8.36378906 -23.3890625 8.18460937 -24 8 C-22.98679687 7.60167969 -21.97359375 7.20335937 -20.9296875 6.79296875 C-19.57806929 6.25795321 -18.22650991 5.72278904 -16.875 5.1875 C-16.20984375 4.92646484 -15.5446875 4.66542969 -14.859375 4.39648438 C-11.69091225 3.13841828 -8.71194992 1.84644139 -5.6953125 0.23828125 C-3 -1 -3 -1 0 0 Z " fill="#ECBF8B" transform="translate(713,419)"/>
<path d="M0 0 C0.66 0.66 1.32 1.32 2 2 C-1.96 5.96 -5.92 9.92 -10 14 C-10.66 13.34 -11.32 12.68 -12 12 C-8.04 8.04 -4.08 4.08 0 0 Z " fill="#D5EEEE" transform="translate(74,194)"/>
<path d="M0 0 C3.68069887 1.53643852 5.98775204 3.78150945 8.75 6.625 C9.54921875 7.44226563 10.3484375 8.25953125 11.171875 9.1015625 C12.07679687 10.04128906 12.07679687 10.04128906 13 11 C12.34 11.66 11.68 12.32 11 13 C9.16052663 11.21427748 7.32842259 9.42197551 5.5 7.625 C4.71302734 6.86316406 4.71302734 6.86316406 3.91015625 6.0859375 C2.56846819 4.76167396 1.28004185 3.38394135 0 2 C0 1.34 0 0.68 0 0 Z " fill="#C2D4D4" transform="translate(107,344)"/>
<path d="M0 0 C0.66 0 1.32 0 2 0 C2.99 3.63 3.98 7.26 5 11 C4.34 11 3.68 11 3 11 C3 10.34 3 9.68 3 9 C2.01 9 1.02 9 0 9 C0 6.03 0 3.06 0 0 Z " fill="#D6BE51" transform="translate(198,370)"/>
<path d="M0 0 C0.33 0 0.66 0 1 0 C1 3.3 1 6.6 1 10 C-2.68754757 9.50168276 -4.60490662 8.89932357 -7 6 C-5.02 6.66 -3.04 7.32 -1 8 C-0.67 5.36 -0.34 2.72 0 0 Z " fill="#D5EEEE" transform="translate(240,406)"/>
<path d="M0 0 C2 1.375 2 1.375 4 3 C4 3.66 4 4.32 4 5 C-4.57142857 5.28571429 -4.57142857 5.28571429 -8 3 C-5.36 2.67 -2.72 2.34 0 2 C0 1.34 0 0.68 0 0 Z " fill="#D8C454" transform="translate(205,626)"/>
<path d="M0 0 C1.231394 3.69418201 0.64432764 6.2056261 0 10 C-0.99 8.68 -1.98 7.36 -3 6 C-2.01 4.02 -1.02 2.04 0 0 Z " fill="#E5CA57" transform="translate(335,361)"/>
<path d="M0 0 C0.99 0.33 1.98 0.66 3 1 C0.03 3.475 0.03 3.475 -3 6 C-3.66 5.67 -4.32 5.34 -5 5 C-3.35 3.35 -1.7 1.7 0 0 Z " fill="#DAC654" transform="translate(422,281)"/>
</svg>
