<?xml version="1.0" encoding="UTF-8"?>
<svg version="1.1" xmlns="http://www.w3.org/2000/svg" width="803" height="803">
<path d="M0 0 C7.33168013 4.1895315 12.9738764 9.82596566 15.6875 17.9375 C17.71893595 26.46953101 16.04415387 33.56085709 11.9375 41.1875 C6.48920836 47.84652312 0.77212495 52.19747805 -7.9140625 53.25390625 C-15.97951559 53.60605984 -22.1857429 51.37603829 -29.0625 47.3125 C-34.30529779 41.77843567 -37.97827096 35.62476797 -38.3125 27.9375 C-53.47206134 32.06726206 -61.3579317 39.64316159 -69.15625 53.125 C-78.12345491 70.11549352 -81.91281269 88.15936136 -85.3125 106.9375 C-84.71002441 107.20788086 -84.10754883 107.47826172 -83.48681641 107.75683594 C-52.75644147 121.67269751 -25.87197375 141.05845842 -6.3125 168.9375 C-5.2296875 170.47857422 -5.2296875 170.47857422 -4.125 172.05078125 C19.08433008 206.6575502 29.13897832 244.83338269 32.6875 285.9375 C33.33074219 285.71610352 33.97398437 285.49470703 34.63671875 285.26660156 C59.8368605 276.62989107 59.8368605 276.62989107 72.6875 273.9375 C73.35330078 273.78941895 74.01910156 273.64133789 74.70507812 273.48876953 C104.90305307 266.94023575 139.20209797 268.89938312 165.6875 285.9375 C189.51013672 302.74693058 203.99563158 327.97338168 209.17578125 356.5390625 C212.86071343 384.1532268 206.39008763 410.61564033 189.6875 432.9375 C179.21748407 446.5852576 167.08306751 457.57381779 152.6875 466.9375 C153.19796875 467.61232422 153.19796875 467.61232422 153.71875 468.30078125 C154.76671367 469.69156282 155.809078 471.08657085 156.84765625 472.484375 C158.08555963 474.13491284 159.34391605 475.77028643 160.62109375 477.390625 C176.04859834 497.47946139 180.2140821 520.52809294 177.21484375 545.3984375 C173.90192534 567.56007593 162.66380515 588.78215408 145 602.75 C116.574556 622.78036468 82.23663106 624.77794019 48.80615234 619.48095703 C30.7165257 616.3313833 12.45916213 611.51179903 -4.3125 603.9375 C-4.38726563 604.47375 -4.46203125 605.01 -4.5390625 605.5625 C-9.81457279 637.00867897 -30.93149122 662.18430926 -56.04199219 680.34277344 C-67.37912682 688.30558671 -79.60168698 694.84835241 -91.81469727 701.34765625 C-112.15963648 712.18460748 -124.56349784 724.54129787 -136.234375 744.42578125 C-143.28683419 756.4246671 -143.28683419 756.4246671 -146.3125 757.9375 C-149.0625 758.4375 -149.0625 758.4375 -152.3125 757.9375 C-156.21223489 754.3768725 -158.52627801 750.63265579 -161.02197266 745.99584961 C-171.51479942 726.59485913 -189.95324456 716.07182601 -209.3125 706.9375 C-230.19766203 697.07427183 -249.29705545 685.67323145 -266.3125 669.9375 C-266.99054688 669.3290625 -267.66859375 668.720625 -268.3671875 668.09375 C-282.88448593 654.44615147 -292.42891686 636.36250841 -299.3125 617.9375 C-299.67472656 616.98101563 -300.03695312 616.02453125 -300.41015625 615.0390625 C-301.78515214 611.18907401 -302.43166437 608.00310796 -302.3125 603.9375 C-303.37082031 604.36160156 -304.42914063 604.78570313 -305.51953125 605.22265625 C-345.51656676 620.82293626 -394.29218052 630.52161233 -435.31152344 613.08789062 C-444.79059981 608.6834713 -453.1994673 602.58401015 -460.3125 594.9375 C-460.99054688 594.24140625 -461.66859375 593.5453125 -462.3671875 592.828125 C-479.31929326 574.90569668 -486.02006842 550.88301981 -485.78710938 526.60375977 C-484.99401933 503.03797018 -474.22338373 483.57053416 -459.3125 465.9375 C-459.87066406 465.67710937 -460.42882812 465.41671875 -461.00390625 465.1484375 C-485.02554689 452.54825375 -504.16716208 427.48509804 -512.3125 401.9375 C-521.0562375 373.71633345 -515.88102497 344.95188758 -502.5 319.125 C-498.8628671 312.39883113 -494.47763202 306.58713352 -489.3125 300.9375 C-488.55324219 300.08542969 -487.79398438 299.23335938 -487.01171875 298.35546875 C-471.33497585 281.65242517 -448.53608948 272.16465227 -425.82836914 270.71508789 C-422.07031562 270.59740354 -418.32239496 270.55707651 -414.5625 270.5625 C-413.88919647 270.56337616 -413.21589294 270.56425232 -412.52218628 270.56515503 C-386.99312797 270.67375734 -363.1156386 277.0456059 -339.3125 285.9375 C-339.18294922 283.99037109 -339.18294922 283.99037109 -339.05078125 282.00390625 C-335.59913972 235.51081523 -320.00536401 188.84814383 -287.61328125 154.390625 C-285.60442611 152.24875568 -283.70119907 150.05947688 -281.8125 147.8125 C-265.07781382 128.76958125 -241.1725274 114.08014998 -217.3125 105.9375 C-226.458324 65.26510804 -226.458324 65.26510804 -252.3125 33.9375 C-257.42171795 31.1870832 -262.70524401 29.36913983 -268.3125 27.9375 C-268.35375 29.236875 -268.395 30.53625 -268.4375 31.875 C-269.25701597 39.11405774 -273.4348888 44.41274467 -278.625 49.3125 C-283.98805346 53.56514151 -290.45072678 55.54401301 -297.28125 55.21875 C-305.54088842 54.07510776 -312.33262715 50.45273646 -317.8515625 44.19140625 C-322.50589294 37.64540349 -324.13497397 29.22233659 -322.875 21.3125 C-320.86984649 14.28807686 -316.40541988 7.96783611 -310.3125 3.9375 C-302.7346384 -0.18660545 -295.11154455 -1.31004333 -286.8125 1 C-283.2301825 2.25684699 -281.28298363 3.82656812 -278.6875 6.5625 C-274.03366777 10.98548738 -269.42946258 10.56928522 -263.2578125 10.72265625 C-246.87028731 11.61504624 -233.80046327 20.59460808 -222.98486328 32.38476562 C-207.52737614 49.90733297 -197.19285197 72.66657995 -190.92578125 95.01708984 C-190.47837926 96.92444791 -190.47837926 96.92444791 -189.3125 97.9375 C-187.80495651 97.81144358 -186.30366371 97.60986819 -184.80859375 97.37890625 C-160.36667056 93.82304318 -136.58264054 93.9279183 -112.3125 98.9375 C-112.18875 98.32648438 -112.065 97.71546875 -111.9375 97.0859375 C-105.97992427 70.64919521 -94.41011573 45.31269735 -75.3125 25.9375 C-74.631875 25.24398437 -73.95125 24.55046875 -73.25 23.8359375 C-64.27957263 15.35140828 -52.6803272 10.5947066 -40.375 10.8125 C-39.69115234 10.82152344 -39.00730469 10.83054687 -38.30273438 10.83984375 C-36.63916713 10.86311042 -34.97578369 10.89896833 -33.3125 10.9375 C-33.05984375 10.34066406 -32.8071875 9.74382813 -32.546875 9.12890625 C-30.41253372 5.33977506 -26.85553976 3.33307802 -23.3125 0.9375 C-22.405 0.31875 -21.4975 -0.3 -20.5625 -0.9375 C-13.6352643 -3.33538928 -6.66313293 -3.08233478 0 0 Z " fill="#010101" transform="translate(559.3125,27.0625)"/>
<path d="M0 0 C0.92847748 -0.00173218 1.85695496 -0.00346436 2.81356812 -0.00524902 C18.02849706 0.00720437 32.09925093 1.30735621 46.8125 5.4375 C48.67261719 5.92089844 48.67261719 5.92089844 50.5703125 6.4140625 C53.71084872 7.3014376 56.74638817 8.32047785 59.8125 9.4375 C60.48265137 9.67694336 61.15280273 9.91638672 61.84326172 10.16308594 C89.77069078 20.22114613 116.08133971 37.07523606 134.8125 60.4375 C135.59238281 61.40300781 136.37226562 62.36851562 137.17578125 63.36328125 C143.00570632 70.69290506 148.20021961 78.27418984 152.8125 86.4375 C153.2367627 87.18499512 153.66102539 87.93249023 154.09814453 88.70263672 C164.83513113 107.83850236 172.4972777 127.89914669 176.8125 149.4375 C177.20308594 151.35985474 177.20308594 151.35985474 177.6015625 153.32104492 C179.66704139 164.11477141 180.282814 174.62096666 180.20361328 185.59838867 C180.18740293 188.26597345 180.20363895 190.93206741 180.22265625 193.59960938 C180.2339967 203.35397193 179.54284744 212.02432686 176.8125 221.4375 C176.37139856 223.22828341 175.93337521 225.01983115 175.5 226.8125 C164.17447754 267.09399742 134.19113887 300.29623399 98.38769531 320.8527832 C83.91208096 328.90213619 68.92690197 335.47581978 52.8125 339.4375 C52.13977051 339.60733398 51.46704102 339.77716797 50.77392578 339.95214844 C48.60164081 340.49905196 46.42673329 341.03359243 44.25 341.5625 C43.60208496 341.72137695 42.95416992 341.88025391 42.28662109 342.04394531 C40.13511392 342.54849526 37.97918093 343.00250712 35.8125 343.4375 C34.91547363 343.61917725 34.01844727 343.80085449 33.09423828 343.98803711 C23.01828652 345.79012872 13.01294048 345.79420272 2.8125 345.75 C1.90009552 345.74751251 0.98769104 345.74502502 0.04763794 345.74246216 C-47.26963777 345.5426097 -92.85987246 329.15468128 -127.34765625 296.1015625 C-130.04271576 293.48176753 -130.04271576 293.48176753 -132.62109375 291.5859375 C-151.62697701 275.67538074 -164.17192765 251.41848611 -172.1875 228.4375 C-172.45111328 227.68992432 -172.71472656 226.94234863 -172.98632812 226.17211914 C-186.87272446 185.84585275 -177.23921551 139.44494667 -159.18432617 102.00219727 C-157.58025597 98.78030657 -155.89080249 95.60770053 -154.1875 92.4375 C-153.58550781 91.2825 -152.98351562 90.1275 -152.36328125 88.9375 C-131.23383779 49.95655609 -94.33428482 20.63558381 -52.375 7.125 C-45.72403334 5.20904895 -38.98769833 3.71737187 -32.1875 2.4375 C-31.39706299 2.26758545 -30.60662598 2.0976709 -29.79223633 1.92260742 C-19.91116457 -0.01225117 -10.03059791 -0.00044393 0 0 Z " fill="#F0C64D" transform="translate(405.1875,127.5625)"/>
<path d="M0 0 C1.70025888 1.70025888 1.36965573 3.93018009 1.59399414 6.21557617 C4.64168927 37.2067196 16.52611522 64.82280535 36 89 C36.50611816 89.6285791 37.01223633 90.2571582 37.53369141 90.90478516 C48.27982998 104.11350843 61.56002795 118.28001398 77 126 C75.69532081 128.79196752 74.24588864 131.11583971 72.3125 133.51171875 C53.99243265 156.59042639 42.62959937 181.63083054 35 210 C-2.69618075 210.99822853 -38.59504808 207.07723487 -74 193 C-74.969375 192.62488281 -75.93875 192.24976563 -76.9375 191.86328125 C-99.94267716 182.65509199 -122.05205402 170.20629532 -140 153 C-140.83144531 152.23171875 -141.66289062 151.4634375 -142.51953125 150.671875 C-157.60918401 136.30077713 -170.87394965 114.16789593 -172.19287109 92.88818359 C-172.56741825 76.66461678 -172.79294712 61.41364866 -167 46 C-166.64711914 45.02957764 -166.64711914 45.02957764 -166.28710938 44.03955078 C-157.5905183 20.60307635 -141.09810399 2.75404418 -118.75 -8.1875 C-80.61297296 -25.14736696 -37.2983247 -13.56704465 0 0 Z " fill="#ACDBEB" transform="translate(221,319)"/>
<path d="M0 0 C17.33850471 15.36096904 29.77264627 39.0761759 31.4765625 62.30102539 C32.78932002 92.66930863 26.86844753 117.98648425 5.93017578 141.00073242 C-17.09501168 165.8647599 -47.67115027 180.90540307 -79.5234375 191.30102539 C-81.14069409 191.84248575 -82.75788234 192.38415027 -84.375 192.92602539 C-94.95510124 196.42250928 -105.56015684 199.29325431 -116.5234375 201.30102539 C-117.33071289 201.45200684 -118.13798828 201.60298828 -118.96972656 201.75854492 C-137.70837062 205.1106721 -156.56769564 204.60800734 -175.5234375 204.30102539 C-177.59796119 199.54436804 -179.31115807 194.92043047 -180.7734375 189.92602539 C-187.99443249 166.28714628 -199.45713996 143.97795764 -216.49316406 125.88574219 C-217.00314941 125.10130737 -217.00314941 125.10130737 -217.5234375 124.30102539 C-216.20487596 120.34534078 -213.71636763 119.14346275 -210.3984375 116.92602539 C-175.9128548 93.01263258 -150.96186231 57.5124523 -143.234375 15.92602539 C-142.09758746 9.08794462 -141.71444127 2.22491211 -141.5234375 -4.69897461 C-97.67128963 -24.48058223 -39.43819532 -33.51117646 0 0 Z " fill="#ACDBEC" transform="translate(731.5234375,324.698974609375)"/>
<path d="M0 0 C16.03881834 13.86070721 26.55294837 31.70896657 28.40625 52.9375 C30.01288588 76.12389645 24.64693786 95.68944605 9.51953125 113.63671875 C-2.60966797 126.84207613 -20.75367246 139.00130844 -39.32006836 140.09863281 C-42.7238988 140.14454035 -46.12713526 140.17281918 -49.53125 140.1875 C-50.69205078 140.208125 -51.85285156 140.22875 -53.04882812 140.25 C-64.22079736 140.29973609 -74.71671603 138.5802684 -84.65625 133.3125 C-85.32543457 132.96550049 -85.99461914 132.61850098 -86.68408203 132.26098633 C-106.63634213 121.6040705 -119.23843635 105.55063703 -126.5859375 84.484375 C-132.56905435 63.42751414 -130.83451916 42.70415404 -120.58203125 23.296875 C-110.59537682 6.42354924 -96.93254341 -5.94637311 -78.59375 -13.0625 C-77.83578125 -13.35769531 -77.0778125 -13.65289062 -76.296875 -13.95703125 C-50.09175705 -23.38901519 -21.56288473 -17.14639027 0 0 Z " fill="#FEFEFD" transform="translate(369.59375,211.0625)"/>
<path d="M0 0 C14.91683238 12.89108971 26.01473493 30.07249579 28.40625 49.9375 C30.08584548 73.23639125 25.01927553 95.33000622 9.6171875 113.53515625 C-3.50136372 127.78941244 -21.28351509 139.12055046 -41.19580078 140.06030273 C-67.50551812 140.76575481 -87.69317955 135.85261445 -107.2734375 117.4140625 C-123.26929661 100.8347678 -129.98054192 80.01489006 -129.89648438 57.29833984 C-129.75746719 50.48778519 -128.83978961 44.39486388 -126.59375 37.9375 C-126.2534375 36.88433594 -125.913125 35.83117187 -125.5625 34.74609375 C-118.48014438 14.48002884 -103.52672515 -1.11691198 -84.41894531 -10.40136719 C-79.58051788 -12.67948878 -74.8006305 -14.77768533 -69.59375 -16.0625 C-68.80613281 -16.26488281 -68.01851563 -16.46726563 -67.20703125 -16.67578125 C-43.39555668 -21.90789898 -18.92844631 -15.05153562 0 0 Z " fill="#FEFDFD" transform="translate(543.59375,211.0625)"/>
<path d="M0 0 C0.86238281 0.47308594 1.72476563 0.94617188 2.61328125 1.43359375 C17.92399522 9.76163285 33.21475652 17.19562423 49.89892578 22.3425293 C54.64234595 23.82684611 59.34393884 25.44303825 64.0546875 27.02734375 C92.00923836 36.04868773 120.86634074 37.51390189 150 38 C149.7834375 39.29164063 149.566875 40.58328125 149.34375 41.9140625 C145.54797555 66.70141524 144.9830038 93.000255 149.34375 117.7421875 C150.06617443 121.87919616 150.1146637 125.80521949 150 130 C142.4115759 133.23137082 134.81597591 136.35903413 127 139 C125.57107422 139.49306641 125.57107422 139.49306641 124.11328125 139.99609375 C90.97193147 150.47251059 48.87078243 153.88037835 17 138 C-3.93189487 126.05695262 -16.90670976 108.4507648 -23.39453125 85.50390625 C-23.59433594 84.67761719 -23.79414062 83.85132813 -24 83 C-24.16628906 82.39873291 -24.33257812 81.79746582 -24.50390625 81.17797852 C-30.25560617 58.68215573 -25.44222969 36.61004514 -14 17 C-9.90943485 10.63434525 -5.39297867 5.27075819 0 0 Z " fill="#B6E4FD" transform="translate(105,496)"/>
<path d="M0 0 C12.63222345 9.91589982 22.49166645 27.74546229 24.48828125 43.71484375 C26.94636716 69.64368539 23.28751744 94.73279012 6.93359375 115.71875 C5.59608984 117.31618391 4.24285651 118.90063689 2.87109375 120.46875 C2.31679688 121.10683594 1.7625 121.74492188 1.19140625 122.40234375 C-13.81693117 138.52373969 -37.98591453 145.91586379 -59.3984375 146.83984375 C-90.1416516 147.41879876 -121.95125708 142.16705745 -150.12890625 129.46875 C-150.45890625 129.13875 -150.78890625 128.80875 -151.12890625 128.46875 C-150.97860625 123.05794998 -150.01272893 117.6732672 -149.12890625 112.34375 C-145.56402364 89.35823827 -145.90806793 65.39498352 -149.85351562 42.51391602 C-150.12890625 40.46875 -150.12890625 40.46875 -150.12890625 36.46875 C-149.36562012 36.44893066 -148.60233398 36.42911133 -147.81591797 36.40869141 C-110.93045467 35.40790159 -74.55939863 31.86448109 -40.12890625 17.46875 C-39.236875 17.09669434 -38.34484375 16.72463867 -37.42578125 16.34130859 C-34.59140532 15.14786092 -31.7650979 13.93725274 -28.94140625 12.71875 C-27.94197998 12.28916992 -26.94255371 11.85958984 -25.9128418 11.41699219 C-19.27034384 8.51988597 -12.84597058 5.38963469 -6.64575195 1.62988281 C-2.67872301 -0.66845198 -2.67872301 -0.66845198 0 0 Z " fill="#B6E4FD" transform="translate(707.12890625,497.53125)"/>
<path d="M0 0 C1.40625 2.37890625 1.40625 2.37890625 2.5 5.5625 C2.90992188 6.74070312 3.31984375 7.91890625 3.7421875 9.1328125 C4.16293527 10.42139369 4.58217378 11.71046853 5 13 C5.21688477 13.64549805 5.43376953 14.29099609 5.65722656 14.95605469 C9.46953631 26.30315041 13.28932421 37.92452117 13 50 C-6.89818497 59.42270086 -27.23046529 67.33946827 -48.375 73.5 C-49.05304688 73.69980469 -49.73109375 73.89960937 -50.4296875 74.10546875 C-51.85593207 74.52323069 -53.28365929 74.93595623 -54.71264648 75.34423828 C-56.26742715 75.78997858 -57.81897494 76.2471198 -59.36743164 76.71435547 C-67.25256986 79.00840481 -75.24080723 80.40136083 -83.33178711 81.73486328 C-85.66768716 82.12171874 -88.00075226 82.52318626 -90.33398438 82.92578125 C-107.33121669 85.79977398 -124.23455156 86.23748943 -141.4375 86.25 C-142.40599884 86.25100708 -143.37449768 86.25201416 -144.37234497 86.25305176 C-159.46834954 86.24246801 -174.09533772 85.57282861 -189 83 C-190.30324219 82.79117188 -190.30324219 82.79117188 -191.6328125 82.578125 C-264.1037589 70.8962411 -264.1037589 70.8962411 -283 52 C-283.54147135 40.99008258 -281.0813082 30.84469331 -278.125 20.3125 C-277.75834229 18.99427246 -277.75834229 18.99427246 -277.38427734 17.64941406 C-275.7099311 11.8593746 -273.59167848 6.44054012 -271 1 C-264.92817397 1.37174445 -259.66185971 3.00653951 -253.92041016 4.98657227 C-234.0357083 11.83313073 -213.72747053 15.73628226 -193 19 C-191.95553711 19.17096191 -190.91107422 19.34192383 -189.83496094 19.51806641 C-156.43436357 24.81006629 -120.39932202 23.89336451 -87 19 C-85.96907227 18.86078125 -84.93814453 18.7215625 -83.87597656 18.578125 C-59.87655577 15.33110033 -36.2876124 10.0254901 -13.51416016 1.75708008 C-12.46663574 1.38349365 -11.41911133 1.00990723 -10.33984375 0.625 C-9.42581787 0.28726562 -8.51179199 -0.05046875 -7.57006836 -0.3984375 C-4.63426277 -1.08560621 -2.85116182 -0.9489462 0 0 Z " fill="#F0C54D" transform="translate(541,499)"/>
<path d="M0 0 C-1.75441335 8.84338436 -4.2008507 16.82787156 -8 25 C-8.41958984 25.9266748 -8.41958984 25.9266748 -8.84765625 26.87207031 C-20.29438838 51.98302922 -20.29438838 51.98302922 -32.5 57.4375 C-34.34526096 58.10131979 -36.19166475 58.76397423 -38.05761719 59.3671875 C-40.02998795 60.00976983 -41.96929514 60.71600762 -43.9140625 61.4375 C-63.04741335 68.36829684 -82.98464208 72.77779335 -103.0625 75.875 C-103.73291321 75.97845734 -104.40332642 76.08191467 -105.09405518 76.18850708 C-137.79784107 81.16963508 -171.41184255 80.56023929 -204 75 C-205.06089844 74.82339844 -206.12179687 74.64679688 -207.21484375 74.46484375 C-257.20604544 65.86763072 -257.20604544 65.86763072 -270.75097656 46.81152344 C-280.23969891 33.04953755 -286.63204289 17.35864881 -290 1 C-289.47067871 1.17740723 -288.94135742 1.35481445 -288.39599609 1.53759766 C-273.09834695 6.65232328 -257.79652001 11.52972893 -242.14501953 15.45019531 C-240.17108317 15.9561485 -238.20788252 16.50350855 -236.24609375 17.0546875 C-224.24147352 20.33909049 -211.98440367 21.95200844 -199.65527344 23.52563477 C-197.22272847 23.8413197 -194.79340175 24.18290394 -192.36816406 24.55053711 C-179.46397819 26.35567322 -166.57843118 26.33749877 -153.56591797 26.31567383 C-149.667353 26.31253411 -145.76956439 26.33597502 -141.87109375 26.36132812 C-119.64275711 26.41861675 -97.78824084 24.59964999 -76 20.125 C-74.67538262 19.8581946 -73.35075678 19.59143124 -72.02612305 19.32470703 C-68.34504131 18.57588337 -64.67154489 17.79436836 -61 17 C-60.13068848 16.81244141 -59.26137695 16.62488281 -58.36572266 16.43164062 C-41.68253855 12.70762005 -25.50732426 6.6271568 -9.34375 1.13574219 C-3.02820772 -1.00940257 -3.02820772 -1.00940257 0 0 Z " fill="#EFC54D" transform="translate(551,627)"/>
<path d="M0 0 C0.79607666 0.00563965 1.59215332 0.0112793 2.41235352 0.01708984 C8.43445593 0.14123156 13.64687234 0.82158534 19.1875 3.3125 C20.07566406 3.70308594 20.96382813 4.09367188 21.87890625 4.49609375 C34.16811542 10.52959978 43.09790574 20.70756436 47.81640625 33.51171875 C49.38250019 38.39359418 49.72626973 42.95831557 49.6875 48.0625 C49.68250488 48.93430908 49.67750977 49.80611816 49.67236328 50.7043457 C49.29797734 64.6818513 42.63159631 76.78422802 32.66015625 86.390625 C20.74343914 95.65290749 6.96483321 98.67169484 -7.8125 97.3125 C-20.39725472 94.8884469 -31.37699154 87.69711309 -38.8125 77.3125 C-46.74097713 64.68334472 -50.02190689 52.83581377 -47.16015625 37.91015625 C-42.95077765 22.71664808 -34.41503723 12.74416568 -21.05053711 4.97583008 C-14.11646958 1.12941447 -7.78625564 -0.05773095 0 0 Z " fill="#2B1B06" transform="translate(314.8125,234.6875)"/>
<path d="M0 0 C9.75109672 7.80349161 17.72192039 18.7536657 19.30200195 31.42114258 C19.43611748 33.91409889 19.4678428 36.37870242 19.4375 38.875 C19.42992676 39.75269043 19.42235352 40.63038086 19.41455078 41.53466797 C19.24222813 48.32820553 18.20064341 53.93772213 15 60 C14.57589844 60.845625 14.15179687 61.69125 13.71484375 62.5625 C6.62993377 75.5087422 -3.69653569 82.47915905 -17.41796875 87.16796875 C-30.99854164 90.32245296 -43.84918277 87.82257042 -55.75 80.8125 C-66.69133123 73.36107614 -74.17757155 62.10734017 -77.4375 49.25 C-79.55935969 36.42453697 -77.11474258 22.95670358 -70 12 C-52.55827553 -11.34940534 -24.07850404 -15.42941647 0 0 Z " fill="#2A1B05" transform="translate(519,244)"/>
<path d="M0 0 C2.35048538 3.52572807 2.66397817 4.85013645 2 9 C-3.88420788 15.32552347 -11.69614544 17.63793533 -20.19335938 18.12597656 C-43.8999355 18.88297717 -43.8999355 18.88297717 -54 11 C-54.61875 10.525625 -55.2375 10.05125 -55.875 9.5625 C-57 8 -57 8 -57.625 5.6875 C-56.61296898 1.33576663 -53.67409996 -0.66499508 -50 -3 C-34.9288256 -9.75334632 -13.88152551 -9.3188727 0 0 Z " fill="#FA8D67" transform="translate(327,363)"/>
<path d="M0 0 C1.08603516 -0.020625 2.17207031 -0.04125 3.29101562 -0.0625 C12.58249952 -0.10714377 21.64965865 0.86622008 28.640625 7.57421875 C29.8125 9.25 29.8125 9.25 30.25 12.8125 C28.20629485 17.69962101 25.58406085 19.19212305 20.8125 21.25 C8.19238903 26.03296443 -8.60724917 26.35475224 -21.1875 21.25 C-24.30370696 19.60452623 -26.88500091 17.93733605 -29.1875 15.25 C-30 12.1875 -30 12.1875 -29.1875 9.25 C-21.93357725 -0.20208117 -10.82793174 0.0505093 0 0 Z " fill="#FB8D68" transform="translate(512.1875,356.75)"/>
<path d="M0 0 C4.09823267 1.49303644 7.64156685 3.50471852 11.375 5.75 C28.57361554 15.78806677 47.11456889 21.06972749 67.1015625 16.87890625 C77.44040068 13.74381381 86.92337582 8.07042389 96.171875 2.6015625 C99 1 99 1 102 0 C96.09927777 13.03443119 81.79376448 21.84070553 69 27 C53.18868368 31.96445358 39.83094168 30.4455474 25.08007812 22.89355469 C15.47366397 17.71717947 7.15938457 10.19521043 0 2 C0 1.34 0 0.68 0 0 Z " fill="#0B0903" transform="translate(355,399)"/>
<path d="M0 0 C0.76787842 0.10997314 1.53575684 0.21994629 2.3269043 0.33325195 C13.64736531 2.06198044 24.51454634 4.96381069 35.3125 8.75 C36.44212158 9.14582275 37.57174316 9.54164551 38.7355957 9.94946289 C55.99446646 16.11009352 71.32875097 23.89724704 85.5625 35.5625 C85.2325 36.8825 84.9025 38.2025 84.5625 39.5625 C79.91029628 36.95703066 75.44353866 34.20361543 71 31.25 C60.17444875 24.20080384 48.73354038 18.89739109 36.5625 14.5625 C35.59957031 14.21445312 34.63664063 13.86640625 33.64453125 13.5078125 C-4.42200216 0.25387779 -53.66705776 -4.35946675 -92.4375 8.5625 C-93.4275 9.0575 -93.4275 9.0575 -94.4375 9.5625 C-94.7675 7.9125 -95.0975 6.2625 -95.4375 4.5625 C-65.12622471 -7.0217185 -31.487004 -4.54955568 0 0 Z " fill="#9CC6D6" transform="translate(619.4375,453.4375)"/>
<path d="M0 0 C-0.33 1.65 -0.66 3.3 -1 5 C-1.61407715 4.85377197 -2.2281543 4.70754395 -2.86083984 4.55688477 C-5.69736543 3.88544054 -8.53612389 3.22393262 -11.375 2.5625 C-12.34050781 2.33240234 -13.30601562 2.10230469 -14.30078125 1.86523438 C-15.26113281 1.64287109 -16.22148437 1.42050781 -17.2109375 1.19140625 C-18.08024902 0.98717041 -18.94956055 0.78293457 -19.84521484 0.57250977 C-27.57243897 -0.8297763 -35.32142656 -1.17036504 -43.16015625 -1.23828125 C-44.09957565 -1.24812042 -45.03899506 -1.25795959 -46.00688171 -1.26809692 C-75.22449631 -1.5430541 -75.22449631 -1.5430541 -104 3 C-105.08635742 3.2573291 -106.17271484 3.5146582 -107.29199219 3.77978516 C-120.22518144 6.90417718 -132.89312283 10.41432712 -145 16 C-145.64582031 16.29487305 -146.29164063 16.58974609 -146.95703125 16.89355469 C-155.61369211 20.88670848 -163.51267267 25.42189995 -171.23046875 31.01953125 C-173.75572719 32.82532254 -176.31547132 34.44424938 -179 36 C-179.99 35.01 -180.98 34.02 -182 33 C-161.6842161 16.13000277 -137.75676469 5.54367452 -112 0 C-110.95585937 -0.26167969 -109.91171875 -0.52335937 -108.8359375 -0.79296875 C-102.25335495 -2.4344482 -95.63919014 -3.60373647 -88.9375 -4.625 C-87.73335449 -4.80977905 -87.73335449 -4.80977905 -86.50488281 -4.99829102 C-57.94707833 -9.17572157 -27.75654421 -8.25987796 0 0 Z " fill="#9CC6D6" transform="translate(287,457)"/>
<path d="M0 0 C3.375 1.6875 3.375 1.6875 6 4 C6.78375 4.680625 7.5675 5.36125 8.375 6.0625 C10.8817801 10.5939871 10.6261403 14.93742664 10 20 C8.08608084 24.7344316 4.54631214 27.72684393 0 30 C-4.55897843 30.5972791 -9.07410452 31.04461115 -13.2109375 28.80078125 C-16.97486845 25.64829056 -19.62787223 22.62220266 -20.3359375 17.6328125 C-20.42531743 11.89462069 -20.01244424 8.43480679 -16 4 C-11.0689115 -0.46146102 -6.38623612 -1.02970257 0 0 Z " fill="#FCFCFC" transform="translate(308,249)"/>
<path d="M0 0 C3.375 1.6875 3.375 1.6875 6 4 C6.78375 4.680625 7.5675 5.36125 8.375 6.0625 C10.8817801 10.5939871 10.6261403 14.93742664 10 20 C8.08608084 24.7344316 4.54631214 27.72684393 0 30 C-4.5519362 30.59635648 -9.05776304 31.02259119 -13.2109375 28.8359375 C-17.36179546 25.42067462 -19.61189883 22.31426074 -20.24609375 16.8984375 C-20.54845432 11.41929747 -19.74602637 8.23892457 -16 4 C-11.0689115 -0.46146102 -6.38623612 -1.02970257 0 0 Z " fill="#FDFCFC" transform="translate(482,249)"/>
<path d="M0 0 C1.625 2 1.625 2 3 4 C-11.02010541 11.61680196 -25.02672978 18.47369034 -40 24 C-41.28789429 24.48629883 -41.28789429 24.48629883 -42.60180664 24.98242188 C-56.82700427 30.28427502 -71.64325921 34.27508246 -86.5 37.375 C-87.21406006 37.53033203 -87.92812012 37.68566406 -88.66381836 37.84570312 C-102.76248362 40.61206683 -117.28608808 40.08837056 -131.5625 39.5625 C-133.17120052 39.50905534 -134.7799247 39.4563182 -136.38867188 39.40429688 C-140.25943434 39.27763403 -144.12975574 39.14158256 -148 39 C-148 38.34 -148 37.68 -148 37 C-144.19749259 36.11846964 -140.64939602 35.86435619 -136.75 35.82421875 C-110.83731731 35.38593854 -85.83742271 32.81633179 -61 25 C-60.12972168 24.73316406 -59.25944336 24.46632813 -58.36279297 24.19140625 C-40.57040836 18.70572175 -23.45697381 11.75754686 -7.15136719 2.74267578 C-2.18187941 0 -2.18187941 0 0 0 Z " fill="#13181A" transform="translate(704,493)"/>
<path d="M0 0 C3.67140265 1.33505551 6.858966 3.03685375 10.15625 5.09765625 C12.01130141 6.10674635 12.01130141 6.10674635 14.28125 6.4296875 C17.75467667 7.15830861 20.79479439 8.58924985 24 10.0625 C61.59112831 26.79295339 99.9694699 34.70363077 141.00854492 34.87402344 C143.53167348 34.98027777 145.60072448 35.25995058 148 36 C148 36.66 148 37.32 148 38 C119.41968388 39.33058203 92.66820185 39.44504498 65 31 C62.52113157 30.31142544 60.04196576 29.62392052 57.5625 28.9375 C52.59064869 27.54346708 47.81092334 25.85857799 43 24 C42.2675708 23.72115967 41.5351416 23.44231934 40.78051758 23.1550293 C28.47518022 18.44648069 16.67976442 13.09379013 5 7 C5 6.34 5 5.68 5 5 C4.175 4.505 3.35 4.01 2.5 3.5 C1.675 3.005 0.85 2.51 0 2 C0 1.34 0 0.68 0 0 Z " fill="#13181A" transform="translate(107,494)"/>
<path d="M0 0 C0.82780975 0.01686859 1.65561951 0.03373718 2.5085144 0.05111694 C3.40434235 0.07501495 4.30017029 0.09891296 5.22314453 0.12353516 C6.14306183 0.14477448 7.06297913 0.16601379 8.01077271 0.18789673 C9.95939251 0.23420543 11.90795145 0.2831374 13.85644531 0.33447266 C16.83662419 0.41209411 19.81690795 0.47936402 22.79736328 0.54541016 C24.68930569 0.59166258 26.58123347 0.63851777 28.47314453 0.68603516 C29.81081375 0.71580948 29.81081375 0.71580948 31.17550659 0.7461853 C32.00962067 0.76935822 32.84373474 0.79253113 33.703125 0.81640625 C34.79994095 0.84424698 34.79994095 0.84424698 35.91891479 0.87265015 C38.0335089 1.0418014 39.94158981 1.46535355 41.98095703 2.03759766 C41.98095703 2.69759766 41.98095703 3.35759766 41.98095703 4.03759766 C36.32540876 4.23140149 30.66965017 4.40986253 25.01318359 4.57470703 C23.09280728 4.63276342 21.1725484 4.69486127 19.25244141 4.76123047 C16.47726873 4.8564287 13.70198534 4.93662271 10.92626953 5.01416016 C10.08105743 5.04635651 9.23584534 5.07855286 8.36502075 5.11172485 C2.33492367 5.2600466 -3.15724795 4.43561771 -9.01904297 3.03759766 C-5.55319095 0.72702965 -4.06025325 -0.09443231 0 0 Z " fill="#0A0D0E" transform="translate(213.01904296875,527.96240234375)"/>
<path d="M0 0 C2.4375 1.5625 2.4375 1.5625 4 4 C4 7.78814147 3.8367392 10.03929943 1.3125 12.9375 C-1.69101831 14.3174949 -3.72976207 14.41747718 -7 14 C-8.875 12.9375 -8.875 12.9375 -10 11 C-10.50030235 7.06905293 -10.5996142 4.8994213 -8.375 1.5625 C-5.28314769 -0.47161336 -3.63632575 -0.60605429 0 0 Z " fill="#958D82" transform="translate(520,304)"/>
<path d="M0 0 C2.4375 1.5625 2.4375 1.5625 4 4 C4 7.78814147 3.8367392 10.03929943 1.3125 12.9375 C-1.69101831 14.3174949 -3.72976207 14.41747718 -7 14 C-8.875 12.9375 -8.875 12.9375 -10 11 C-10.50030235 7.06905293 -10.5996142 4.8994213 -8.375 1.5625 C-5.28314769 -0.47161336 -3.63632575 -0.60605429 0 0 Z " fill="#968E83" transform="translate(346,304)"/>
<path d="M0 0 C1.1368927 -0.0049926 1.1368927 -0.0049926 2.29675293 -0.01008606 C3.89362992 -0.01513153 5.49051739 -0.01749512 7.08740234 -0.01733398 C9.52328878 -0.01952409 11.95872458 -0.03771458 14.39453125 -0.05664062 C15.95051929 -0.05957437 17.50650948 -0.06155929 19.0625 -0.0625 C19.78659058 -0.06968552 20.51068115 -0.07687103 21.25671387 -0.08427429 C25.29352153 -0.06612232 28.39725256 0.37888977 32.03125 2.16796875 C30.03125 4.16796875 30.03125 4.16796875 28.15829468 4.37051392 C27.39884552 4.3483078 26.63939636 4.32610168 25.85693359 4.30322266 C24.99619232 4.28305084 24.13545105 4.26287903 23.24862671 4.24209595 C22.31837677 4.2098996 21.38812683 4.17770325 20.4296875 4.14453125 C19.00228745 4.10699234 19.00228745 4.10699234 17.54605103 4.06869507 C14.49909569 3.98635675 11.45277524 3.88982083 8.40625 3.79296875 C6.34377615 3.73474333 4.28127605 3.67743976 2.21875 3.62109375 C-2.84411683 3.48075731 -7.90645895 3.32768438 -12.96875 3.16796875 C-12.96875 2.50796875 -12.96875 1.84796875 -12.96875 1.16796875 C-8.64432713 0.11059462 -4.42609684 0.00680228 0 0 Z " fill="#0A0D0E" transform="translate(568.96875,528.83203125)"/>
<path d="M0 0 C1.8125 1.5 1.8125 1.5 3 3 C-11.78451716 8.70630487 -11.78451716 8.70630487 -18 8 C-19.875 6.5 -19.875 6.5 -21 5 C-17.32813627 3.74383609 -13.63850749 2.54228338 -9.9375 1.375 C-9.12152344 1.11460937 -8.30554688 0.85421875 -7.46484375 0.5859375 C-4.80910651 -0.0453788 -2.71622405 -0.31220966 0 0 Z " fill="#101415" transform="translate(648,518)"/>
<path d="M0 0 C0.96228516 -0.020625 1.92457031 -0.04125 2.91601562 -0.0625 C3.83447266 -0.06765625 4.75292969 -0.0728125 5.69921875 -0.078125 C6.95545044 -0.09214355 6.95545044 -0.09214355 8.23706055 -0.10644531 C8.92195557 0.01118164 9.60685059 0.12880859 10.3125 0.25 C10.9725 1.24 11.6325 2.23 12.3125 3.25 C3.0725 3.25 -6.1675 3.25 -15.6875 3.25 C-15.6875 2.59 -15.6875 1.93 -15.6875 1.25 C-10.42680571 0.07769389 -5.36947901 0.0291226 0 0 Z " fill="#171D1F" transform="translate(571.6875,528.75)"/>
<path d="M0 0 C0 0.33 0 0.66 0 1 C-6.65783708 2.74631792 -13.10313186 3.7688312 -20 3 C-20.99 2.34 -21.98 1.68 -23 1 C-15.89233089 -2.66847438 -7.62700409 -0.96850846 0 0 Z " fill="#0A0C0D" transform="translate(227,529)"/>
<path d="M0 0 C1.00869141 0.00902344 2.01738281 0.01804687 3.05664062 0.02734375 C5.51718457 0.05066644 7.97720896 0.08339237 10.4375 0.125 C10.4375 0.455 10.4375 0.785 10.4375 1.125 C8.53677734 1.19847656 8.53677734 1.19847656 6.59765625 1.2734375 C4.89841904 1.34854191 3.19920124 1.42408632 1.5 1.5 C0.25379883 1.54640625 0.25379883 1.54640625 -1.01757812 1.59375 C-6.03078029 1.82782948 -10.68575824 2.45178376 -15.55078125 3.69726562 C-18.60120879 4.34585168 -21.45516658 4.25722695 -24.5625 4.125 C-16.74766553 -0.03287171 -8.68535571 -0.1494502 0 0 Z " fill="#1B2124" transform="translate(238.5625,528.875)"/>
<path d="M0 0 C-2.82988994 2.38611175 -4.81377768 3.44009055 -8.5 3.8125 C-9.2528125 3.90144531 -10.005625 3.99039063 -10.78125 4.08203125 C-13.32807713 3.98787039 -14.82291646 3.28151054 -17 2 C-10.99085195 -1.26584133 -6.67522647 -1.11477625 0 0 Z " fill="#171C1F" transform="translate(211,527)"/>
<path d="M0 0 C-0.625 2.4375 -0.625 2.4375 -2 5 C-4.8125 6.0625 -4.8125 6.0625 -8 6 C-10.875 4.0625 -10.875 4.0625 -13 2 C-11.39935157 1.46845258 -9.79431126 0.95011647 -8.1875 0.4375 C-7.29417969 0.14746094 -6.40085937 -0.14257812 -5.48046875 -0.44140625 C-3 -1 -3 -1 0 0 Z " fill="#151B1D" transform="translate(659,515)"/>
<path d="M0 0 C0 0.66 0 1.32 0 2 C0.495 2.495 0.99 2.99 1.5 3.5 C1.995 3.995 2.49 4.49 3 5 C3 5.66 3 6.32 3 7 C-0.3 6.01 -3.6 5.02 -7 4 C-7 2.68 -7 1.36 -7 0 C-4.3333581 -1.33332095 -2.83319697 -0.67102033 0 0 Z " fill="#151A1C" transform="translate(146,510)"/>
<path d="M0 0 C3.3 1.98 6.6 3.96 10 6 C9.01 6.495 9.01 6.495 8 7 C7.21625 6.505 6.4325 6.01 5.625 5.5 C3.21408959 3.81880071 3.21408959 3.81880071 1 4.0625 C-1.68630914 5.32170741 -3.76045038 7.07149894 -6 9 C-6 6 -6 6 -4.6875 4.39453125 C-3.125 2.9296875 -1.5625 1.46484375 0 0 Z " fill="#BFE8F1" transform="translate(105,496)"/>
<path d="M0 0 C0.33 0.66 0.66 1.32 1 2 C1.99 2.33 2.98 2.66 4 3 C3.47462276 8.0302076 2.89405214 13.01885239 2 18 C1.67 18 1.34 18 1 18 C1 14.37 1 10.74 1 7 C0.34 6.67 -0.32 6.34 -1 6 C-0.67 4.02 -0.34 2.04 0 0 Z " fill="#E8BD42" transform="translate(238,248)"/>
<path d="M0 0 C1.46184058 0.22860058 2.91955419 0.48370392 4.375 0.75 C5.59316406 0.95882813 5.59316406 0.95882813 6.8359375 1.171875 C9 2 9 2 10.2890625 4.078125 C10.64097656 5.02945313 10.64097656 5.02945313 11 6 C9.02 6 7.04 6 5 6 C4.87625 5.071875 4.87625 5.071875 4.75 4.125 C4.19884128 1.81418662 4.19884128 1.81418662 1.953125 0.8671875 C1.30859375 0.58101563 0.6640625 0.29484375 0 0 Z " fill="#0B0E0F" transform="translate(144,511)"/>
<path d="M0 0 C0 3 0 3 -2.0625 5.75 C-5 8 -5 8 -8.8125 7.8125 C-9.864375 7.544375 -10.91625 7.27625 -12 7 C-11.14148438 6.58621094 -11.14148438 6.58621094 -10.265625 6.1640625 C-8.01035733 5.00532152 -5.89143622 3.73124294 -3.75 2.375 C-2.69039062 1.70597656 -2.69039062 1.70597656 -1.609375 1.0234375 C-1.07828125 0.68570312 -0.5471875 0.34796875 0 0 Z " fill="#1A0C02" transform="translate(526,313)"/>
<path d="M0 0 C0.33 0.66 0.66 1.32 1 2 C-0.670625 2.433125 -0.670625 2.433125 -2.375 2.875 C-6.18938523 4.05877473 -7.29370009 4.66587795 -9.125 8.125 C-9.41375 8.74375 -9.7025 9.3625 -10 10 C-10.32152515 6.46322336 -10.4131192 4.6037896 -8.375 1.625 C-5.3962104 -0.4131192 -3.53677664 -0.32152515 0 0 Z " fill="#9B9389" transform="translate(520,304)"/>
<path d="M0 0 C1.52519276 0.08937803 3.04681929 0.24537146 4.5625 0.4375 C5.80193359 0.59025391 5.80193359 0.59025391 7.06640625 0.74609375 C7.70449219 0.82988281 8.34257812 0.91367187 9 1 C5.81237635 3.12508244 3.73487777 3.5020163 0 4 C-0.33 3.01 -0.66 2.02 -1 1 C-0.67 0.67 -0.34 0.34 0 0 Z " fill="#0C0F10" transform="translate(192,525)"/>
<path d="M0 0 C3.82097239 0.53069061 6.06171403 1.49701566 9 4 C2.9453125 4.9765625 2.9453125 4.9765625 1 5 C0.34 4.34 -0.32 3.68 -1 3 C-0.67 2.01 -0.34 1.02 0 0 Z " fill="#1B2225" transform="translate(624,523)"/>
<path d="M0 0 C0.66 0.33 1.32 0.66 2 1 C-0.31 3.64 -2.62 6.28 -5 9 C-5.66 8.34 -6.32 7.68 -7 7 C-4.69 4.69 -2.38 2.38 0 0 Z " fill="#291F14" transform="translate(285,245)"/>
<path d="M0 0 C-0.33 0.99 -0.66 1.98 -1 3 C-4.3 3 -7.6 3 -11 3 C-4.33333333 -1.44444444 -4.33333333 -1.44444444 0 0 Z " fill="#1A2022" transform="translate(677,508)"/>
<path d="M0 0 C0 0.66 0 1.32 0 2 C1.65 2.33 3.3 2.66 5 3 C3.3125 4.125 3.3125 4.125 1 5 C-2.0993963 4.1144582 -3.71275884 3.28724116 -6 1 C-3 0 -3 0 0 0 Z " fill="#232C2F" transform="translate(652,516)"/>
<path d="M0 0 C-0.99 0.495 -0.99 0.495 -2 1 C-2 1.66 -2 2.32 -2 3 C-3.65 3.33 -5.3 3.66 -7 4 C-7 2.68 -7 1.36 -7 0 C-4.3333581 -1.33332095 -2.83319697 -0.67102033 0 0 Z " fill="#1D2427" transform="translate(146,510)"/>
<path d="M0 0 C0.99 0.33 1.98 0.66 3 1 C2.34 2.32 1.68 3.64 1 5 C-0.65 4.67 -2.3 4.34 -4 4 C-2.68 2.68 -1.36 1.36 0 0 Z " fill="#1D2527" transform="translate(170,519)"/>
<path d="M0 0 C0.66 0.66 1.32 1.32 2 2 C0.35 3.65 -1.3 5.3 -3 7 C-3.99 6.67 -4.98 6.34 -6 6 C-4.02 4.02 -2.04 2.04 0 0 Z " fill="#292014" transform="translate(458,246)"/>
<path d="M0 0 C-0.66 0.66 -1.32 1.32 -2 2 C-1.67 2.66 -1.34 3.32 -1 4 C-4.37462715 3.45276317 -6.08235 2.9451 -9 1 C-5.92677456 0.08941469 -3.19902639 -0.08886184 0 0 Z " fill="#060808" transform="translate(626,524)"/>
<path d="M0 0 C0.66 0 1.32 0 2 0 C3.625 2 3.625 2 5 4 C2.69 4.33 0.38 4.66 -2 5 C-2 2 -2 2 0 0 Z " fill="#192023" transform="translate(702,493)"/>
<path d="M0 0 C2.97 0.495 2.97 0.495 6 1 C4.6875 2.5 4.6875 2.5 3 4 C2.01 4 1.02 4 0 4 C0 2.68 0 1.36 0 0 Z " fill="#090B0C" transform="translate(164,518)"/>
<path d="M0 0 C0 3 0 3 -2 5.1875 C-2.66 5.785625 -3.32 6.38375 -4 7 C-4.66 6.67 -5.32 6.34 -6 6 C-3.375 1.125 -3.375 1.125 0 0 Z " fill="#130600" transform="translate(352,313)"/>
</svg>
